<svg id="visual" viewBox="0 0 960 540" width="960" height="540" xmlns="http://www.w3.org/2000/svg" xmlns:xlink="http://www.w3.org/1999/xlink" version="1.1"><path d="M0 80L26.7 78.3C53.3 76.7 106.7 73.3 160 71.8C213.3 70.3 266.7 70.7 320 73.5C373.3 76.3 426.7 81.7 480 84C533.3 86.3 586.7 85.7 640 82.3C693.3 79 746.7 73 800 70.2C853.3 67.3 906.7 67.7 933.3 67.8L960 68L960 0L933.3 0C906.7 0 853.3 0 800 0C746.7 0 693.3 0 640 0C586.7 0 533.3 0 480 0C426.7 0 373.3 0 320 0C266.7 0 213.3 0 160 0C106.7 0 53.3 0 26.7 0L0 0Z" fill="#4b6ea9"></path><path d="M0 64L26.7 64.5C53.3 65 106.7 66 160 66.5C213.3 67 266.7 67 320 66C373.3 65 426.7 63 480 62.3C533.3 61.7 586.7 62.3 640 61.5C693.3 60.7 746.7 58.3 800 58C853.3 57.7 906.7 59.3 933.3 60.2L960 61L960 0L933.3 0C906.7 0 853.3 0 800 0C746.7 0 693.3 0 640 0C586.7 0 533.3 0 480 0C426.7 0 373.3 0 320 0C266.7 0 213.3 0 160 0C106.7 0 53.3 0 26.7 0L0 0Z" fill="#4179ad"></path><path d="M0 60L26.7 58.8C53.3 57.7 106.7 55.3 160 53.7C213.3 52 266.7 51 320 52.2C373.3 53.3 426.7 56.7 480 58.3C533.3 60 586.7 60 640 58.5C693.3 57 746.7 54 800 51.7C853.3 49.3 906.7 47.7 933.3 46.8L960 46L960 0L933.3 0C906.7 0 853.3 0 800 0C746.7 0 693.3 0 640 0C586.7 0 533.3 0 480 0C426.7 0 373.3 0 320 0C266.7 0 213.3 0 160 0C106.7 0 53.3 0 26.7 0L0 0Z" fill="#3b82b0"></path><path d="M0 46L26.7 46.3C53.3 46.7 106.7 47.3 160 46C213.3 44.7 266.7 41.3 320 39.5C373.3 37.7 426.7 37.3 480 38.7C533.3 40 586.7 43 640 43.2C693.3 43.3 746.7 40.7 800 39C853.3 37.3 906.7 36.7 933.3 36.3L960 36L960 0L933.3 0C906.7 0 853.3 0 800 0C746.7 0 693.3 0 640 0C586.7 0 533.3 0 480 0C426.7 0 373.3 0 320 0C266.7 0 213.3 0 160 0C106.7 0 53.3 0 26.7 0L0 0Z" fill="#3c8bb0"></path><path d="M0 20L26.7 22C53.3 24 106.7 28 160 28C213.3 28 266.7 24 320 22.3C373.3 20.7 426.7 21.3 480 21.7C533.3 22 586.7 22 640 22.5C693.3 23 746.7 24 800 24.2C853.3 24.3 906.7 23.7 933.3 23.3L960 23L960 0L933.3 0C906.7 0 853.3 0 800 0C746.7 0 693.3 0 640 0C586.7 0 533.3 0 480 0C426.7 0 373.3 0 320 0C266.7 0 213.3 0 160 0C106.7 0 53.3 0 26.7 0L0 0Z" fill="#4394b0"></path><path d="M0 20L26.7 19.5C53.3 19 106.7 18 160 17.5C213.3 17 266.7 17 320 16.7C373.3 16.3 426.7 15.7 480 15.3C533.3 15 586.7 15 640 15.8C693.3 16.7 746.7 18.3 800 17.3C853.3 16.3 906.7 12.7 933.3 10.8L960 9L960 0L933.3 0C906.7 0 853.3 0 800 0C746.7 0 693.3 0 640 0C586.7 0 533.3 0 480 0C426.7 0 373.3 0 320 0C266.7 0 213.3 0 160 0C106.7 0 53.3 0 26.7 0L0 0Z" fill="#4e9caf"></path></svg>